<svg id="Layer_1" data-name="Layer 1" xmlns="http://www.w3.org/2000/svg" viewBox="0 0 202.71 66.75"><defs><style>.cls-1{fill:#fff;}</style></defs><title>logo</title><path class="cls-1" d="M23.34,11.81H23.1a11.77,11.77,0,0,0-3.75-2.2,15.8,15.8,0,0,0-5.15-.74q-6.34,0-9.73,2.86T1.07,20c0,3.61,1.13,6.38,3.4,8.29s5.52,2.9,9.73,2.9q5.73,0,9.07-3.22h.22v2.35H32V2.29H23.34Zm-1.47,12a8.05,8.05,0,0,1-5.13,1.38q-3.45,0-5-1.33A4.68,4.68,0,0,1,10.13,20a4.73,4.73,0,0,1,1.59-3.86q1.57-1.3,5-1.31a8.12,8.12,0,0,1,5.13,1.37,4.64,4.64,0,0,1,1.7,3.8A4.6,4.6,0,0,1,21.87,23.83Z"/><path class="cls-1" d="M42.24,23.43a7,7,0,0,1,.55-2.88,5.26,5.26,0,0,1,1.4-1.95,6.63,6.63,0,0,1,2.08-1.13,11.84,11.84,0,0,1,2.44-.55,23.24,23.24,0,0,1,2.63-.13,21,21,0,0,1,4.15.38V15.75H64.6a2.42,2.42,0,0,1,1.59-1.65,10.58,10.58,0,0,1,3.6-.47,11,11,0,0,1,3.4.37c.7.27,1,.68,1,1.23a1.06,1.06,0,0,1-.53,1,4.22,4.22,0,0,1-1.72.41l-11,.93a14.12,14.12,0,0,0-2.95.55,7.76,7.76,0,0,0-2.25,1.17,5,5,0,0,0-1.5,2,7.82,7.82,0,0,0-.51,3,6,6,0,0,0,.82,3.16,5.74,5.74,0,0,0,2.21,2.16A11.32,11.32,0,0,0,60,30.83a17.51,17.51,0,0,0,3.9.4q7.74,0,10.9-3.73v.74a3.08,3.08,0,0,0,.57,2.12H92.28l5.17-5.83,5.09,5.83h11.28l-10.63-10.9,9.57-10H102l-4.56,5.4-4.64-5.4H82l9.6,10L83.33,28c0-.3,0-.62,0-1V15.2a6.6,6.6,0,0,0-.42-2.46,4.35,4.35,0,0,0-1.28-1.8,8.4,8.4,0,0,0-2-1.19A11.85,11.85,0,0,0,76.81,9c-1.11-.17-2.24-.29-3.37-.36s-2.49-.1-4-.1-2.74,0-3.88.12a29.74,29.74,0,0,0-3.35.43,12.63,12.63,0,0,0-2.84.83,8.94,8.94,0,0,0-2.14,1.31,5.34,5.34,0,0,0-1.42,1.91,5.69,5.69,0,0,0-.29.82V9a22.6,22.6,0,0,0-8.73.66,11.34,11.34,0,0,0-4.45,2.59h-.22V9.42H33.57V30.36h8.67Zm32.39-2.18A4.07,4.07,0,0,1,74,23.58a4.8,4.8,0,0,1-1.86,1.59,10.31,10.31,0,0,1-2.53.84,14.07,14.07,0,0,1-2.88.28,6.55,6.55,0,0,1-2.91-.49,1.65,1.65,0,0,1-1-1.61,1.81,1.81,0,0,1,.72-1.57,4.57,4.57,0,0,1,2.23-.7l6.82-.85a6.72,6.72,0,0,0,2-.53Z"/><rect class="cls-1" x="116.77" y="28.18" width="8.84" height="4.83"/><path class="cls-1" d="M201.64,40.52V35.47H195V29.81h-8.69v5.66h-4.16v2.8l-.07-.08a10,10,0,0,0-2.9-1.93A18.38,18.38,0,0,0,174.81,35a36.74,36.74,0,0,0-6-.43q-11.52,0-14.5,6.22-3-6.23-14.57-6.22-10.94,0-14.24,5.5V35.47h-8.69V40.3q-3.23-5.69-14.31-5.7c-6.08,0-10.37,1.28-12.92,3.84V35.07a23.21,23.21,0,0,0-8.72.66,11.34,11.34,0,0,0-4.45,2.59h-.23V35.47H67.7v4.65a9.1,9.1,0,0,0-2-2.33q-3.4-2.86-9.77-2.87-5.82,0-9,3.2h-.23V35.47H38.2v28h8.67V54.32h.25a12.84,12.84,0,0,0,8.85,3q6.36,0,9.77-2.88a9.23,9.23,0,0,0,2-2.32V56.4h8.67V49.47a7.06,7.06,0,0,1,.55-2.87,5.5,5.5,0,0,1,1.4-2,6.51,6.51,0,0,1,2.09-1.14A11.69,11.69,0,0,1,82.84,43a23.24,23.24,0,0,1,2.63-.13c.59,0,1.16,0,1.73.07a13.13,13.13,0,0,0-.34,3q0,11.34,15.67,11.34,11.09,0,14.31-5.71v3.95a1.4,1.4,0,0,1-.66,1.36,5.14,5.14,0,0,1-2.18.34h-1.42l-1.13,0V63.9c.79.08,2.18.13,4.16.13a33.63,33.63,0,0,0,4.75-.27,8.46,8.46,0,0,0,3-1,3.87,3.87,0,0,0,1.68-1.95,8.72,8.72,0,0,0,.48-3.16v-5.9q3.33,5.52,14.31,5.52a42.51,42.51,0,0,0,6.23-.41,20,20,0,0,0,4.33-1.12,8.72,8.72,0,0,0,2.71-1.67,6.38,6.38,0,0,0,1.5-2c0-.11.06-.22.1-.33q3.28,5.52,14.13,5.53a36.87,36.87,0,0,0,6-.43,18.74,18.74,0,0,0,4.38-1.25,9.86,9.86,0,0,0,2.93-2,7.93,7.93,0,0,0,1.74-2.52,10.28,10.28,0,0,0,.74-3h-9.79q-.75,3.16-6,3.16c-4.32,0-6.49-1.77-6.49-5.32s2.17-5.31,6.49-5.31a13.72,13.72,0,0,1,2.75.24,4.88,4.88,0,0,1,1.8.74,4.36,4.36,0,0,1,.94.93,3.58,3.58,0,0,1,.5,1.08h9.74a10.71,10.71,0,0,0-.75-3s0-.08-.07-.13h2.54V50a9.34,9.34,0,0,0,.46,3.2,4.31,4.31,0,0,0,1.57,2.08,7.29,7.29,0,0,0,3,1.17,26.8,26.8,0,0,0,4.75.34,39,39,0,0,0,5.52-.34V49.87Q200.12,50,198,50a5.33,5.33,0,0,1-2.31-.36,1.33,1.33,0,0,1-.68-1.32V40.52ZM58.51,49.93q-1.59,1.32-5.07,1.32a8,8,0,0,1-5.09-1.38,5,5,0,0,1,0-7.59,8,8,0,0,1,5.09-1.36q3.48,0,5.07,1.3a4.77,4.77,0,0,1,1.57,3.86A4.7,4.7,0,0,1,58.51,49.93Zm44,1.32q-6.61,0-6.61-5.32c0-3.54,2.2-5.32,6.61-5.32s6.58,1.78,6.58,5.32S106.92,51.25,102.53,51.25ZM135.41,40.6a11.92,11.92,0,0,1,8.69,0,4,4,0,0,1,2,2.49H133.37A4,4,0,0,1,135.41,40.6Zm10.13,9.29a2.25,2.25,0,0,1-.4.62,4.21,4.21,0,0,1-.85.69,4.88,4.88,0,0,1-1.74.62,13.38,13.38,0,0,1-2.71.25,9.11,9.11,0,0,1-4.79-1,4.15,4.15,0,0,1-1.87-3.16h20.25a12.07,12.07,0,0,0,.44,2Z"/></svg>